<?xml version="1.0" encoding="utf-8"?>
<!-- Generator: Adobe Illustrator 28.2.0, SVG Export Plug-In . SVG Version: 6.00 Build 0)  -->
<svg version="1.1" id="Layer_1" xmlns="http://www.w3.org/2000/svg" xmlns:xlink="http://www.w3.org/1999/xlink" x="0px" y="0px"
	 viewBox="0 0 101 119" style="enable-background:new 0 0 101 119;" xml:space="preserve">
<style type="text/css">
	.st0{fill:#BCBCBC;}
</style>
<g>
	<path class="st0" d="M10.26,50.93c-4.06,1.17-8.97-2.52-9.06-6.67c-0.44-2.4,1.64-4.76,3.34-6.47
		c7.37-7.73,20.66-11.57,31.12-10.28c10.67,2.43,21.08,9.72,32.33,7.85c6.61-1.01,12.72-3.86,18.15-7.75
		c3.46-2.06,8.9-8.52,12.78-6.56c2.17,1.59,1.41,4.83,0.16,7.45c-6.01,11.72-19.77,22.79-33.52,20.62
		c-6.47-0.88-11.86-5.29-17.83-7.7C37.67,36.69,30.3,39.31,21,44.18c-1.5,0.77-2.98,1.57-4.42,2.49c-2.25,1.37-3.88,3.28-6.18,4.21
		L10.26,50.93z"/>
	<path class="st0" d="M27.98,101.52c0.62-3.65,2.39-8.72,2.26-12.66c0.22-7.72,0.61-15.38,1.05-23.1c0.07-3.12-0.78-7.03,1.14-9.54
		c2.89-3.51,7.07-1.73,7.79,2.62c0.83,5.37,0,10.72,1.39,16.15c1.15,5.02,1.33,10.25,1.95,15.33c0.35,4.89-0.33,9.97-0.93,14.78
		c-0.79,3.47-1.31,7.12-3.6,9.93c-2.97,3.65-7.77,1.53-9.67-2.22c-1.54-3.42-1.48-7.5-1.4-11.16L27.98,101.52z"/>
	<path class="st0" d="M83.36,117.29c-11.96,5.24-11.37-7.52-11.17-15.64c0.5-7.52-1.31-14.73,0.02-22.36
		c0.39-2.6,1.04-5.11,1.37-7.73c0.44-3.12-0.38-6.67,0.95-9.56c1.48-3.29,5.82-3.75,7.03,0.14c2.51,8.31,0.94,17.94,1.67,26.22
		c0.44,3.98-0.44,7.02,0.78,10.94c0.9,2.49,2.45,4.71,3.01,7.33c0.92,3.96,0.15,8.76-3.57,10.6L83.36,117.29z"/>
	<path class="st0" d="M78.81,17c-5.32,0.41-7.51-6.07-6.69-10.43c0.75-2.66,3.09-5.13,5.93-5.45c11.65-0.49,12.52,15.04,0.95,15.88
		L78.81,17z"/>
</g>
</svg>
